<svg width="37" height="37" viewBox="0 0 37 37" fill="none" xmlns="http://www.w3.org/2000/svg">
<path d="M18.5 32.375C26.163 32.375 32.375 26.163 32.375 18.5C32.375 10.837 26.163 4.625 18.5 4.625C10.837 4.625 4.625 10.837 4.625 18.5C4.625 26.163 10.837 32.375 18.5 32.375Z" stroke="#7D7D7D" stroke-width="3" stroke-linecap="round" stroke-linejoin="round"/>
<path d="M26.542 29.8039C24.566 27.5971 21.6951 26.2083 18.4997 26.2083C15.3044 26.2083 12.4334 27.5971 10.4574 29.8039" stroke="#7D7D7D" stroke-width="3" stroke-linecap="round" stroke-linejoin="round"/>
<path d="M18.5 21.5833C21.0543 21.5833 23.125 19.5127 23.125 16.9583C23.125 14.404 21.0543 12.3333 18.5 12.3333C15.9457 12.3333 13.875 14.404 13.875 16.9583C13.875 19.5127 15.9457 21.5833 18.5 21.5833Z" stroke="#7D7D7D" stroke-width="3" stroke-linecap="round" stroke-linejoin="round"/>
</svg>
