<svg width="14" height="14" viewBox="0 0 14 14" fill="none" xmlns="http://www.w3.org/2000/svg">
<path d="M6.27334 2.01763C6.69207 1.66079 7.30793 1.66079 7.72666 2.01763L8.43889 2.62459C8.61833 2.7775 8.84143 2.86991 9.07643 2.88867L10.0092 2.9631C10.5577 3.00687 10.9931 3.44235 11.0369 3.99076L11.1113 4.92357C11.1301 5.15857 11.2225 5.38167 11.3754 5.56111L11.9824 6.27334C12.3392 6.69207 12.3392 7.30793 11.9824 7.72666L11.3754 8.43889C11.2225 8.61833 11.1301 8.84143 11.1113 9.07643L11.0369 10.0092C10.9931 10.5577 10.5577 10.9931 10.0092 11.0369L9.07643 11.1113C8.84143 11.1301 8.61833 11.2225 8.43889 11.3754L7.72666 11.9824C7.30793 12.3392 6.69207 12.3392 6.27334 11.9824L5.56111 11.3754C5.38167 11.2225 5.15857 11.1301 4.92357 11.1113L3.99076 11.0369C3.44235 10.9931 3.00687 10.5577 2.9631 10.0092L2.88867 9.07643C2.86991 8.84143 2.7775 8.61833 2.62459 8.43889L2.01763 7.72666C1.66079 7.30793 1.66079 6.69207 2.01763 6.27334L2.62459 5.56111C2.7775 5.38167 2.86991 5.15857 2.88867 4.92357L2.9631 3.99076C3.00687 3.44235 3.44235 3.00687 3.99076 2.9631L4.92357 2.88867C5.15857 2.86991 5.38167 2.7775 5.56111 2.62459L6.27334 2.01763Z" fill="#00A1FF"/>
<path d="M9.10355 6.18687C9.29882 5.9916 9.29882 5.67502 9.10355 5.47976C8.90829 5.2845 8.59171 5.2845 8.39645 5.47976L9.10355 6.18687ZM6.41667 8.16665L6.06311 8.5202C6.25838 8.71546 6.57496 8.71546 6.77022 8.5202L6.41667 8.16665ZM5.60355 6.64643C5.40829 6.45116 5.09171 6.45116 4.89645 6.64643C4.70118 6.84169 4.70118 7.15827 4.89645 7.35353L5.60355 6.64643ZM8.39645 5.47976L6.06311 7.81309L6.77022 8.5202L9.10355 6.18687L8.39645 5.47976ZM6.77022 7.81309L5.60355 6.64643L4.89645 7.35353L6.06311 8.5202L6.77022 7.81309Z" fill="white"/>
</svg>
