<svg width="35" height="35" viewBox="0 0 35 35" fill="none" xmlns="http://www.w3.org/2000/svg">
<path d="M17.5 2.91666L18.3321 1.66858C17.8282 1.33268 17.1718 1.33268 16.668 1.66858L17.5 2.91666ZM30.625 11.6667L31.4571 12.9147C31.8743 12.6365 32.125 12.1682 32.125 11.6667C32.125 11.1651 31.8743 10.6968 31.4571 10.4186L30.625 11.6667ZM17.5 20.4167L16.668 21.6647C17.1718 22.0006 17.8282 22.0006 18.3321 21.6647L17.5 20.4167ZM4.375 11.6667L3.54295 10.4186C3.12565 10.6968 2.875 11.1651 2.875 11.6667C2.875 12.1682 3.12565 12.6365 3.54295 12.9147L4.375 11.6667ZM16.668 4.16473L29.793 12.9147L31.4571 10.4186L18.3321 1.66858L16.668 4.16473ZM29.793 10.4186L16.668 19.1686L18.3321 21.6647L31.4571 12.9147L29.793 10.4186ZM18.3321 19.1686L5.20705 10.4186L3.54295 12.9147L16.668 21.6647L18.3321 19.1686ZM5.20705 12.9147L18.3321 4.16473L16.668 1.66858L3.54295 10.4186L5.20705 12.9147Z" fill="#7D7D7D"/>
<path d="M31.4571 18.7481C32.1463 18.2885 32.3326 17.3572 31.8731 16.6679C31.4135 15.9787 30.4822 15.7924 29.793 16.2519L31.4571 18.7481ZM17.5 26.25L16.668 27.4981C17.1718 27.834 17.8282 27.834 18.3321 27.4981L17.5 26.25ZM5.20705 16.2519C4.51776 15.7924 3.58645 15.9787 3.12692 16.6679C2.6674 17.3572 2.85366 18.2885 3.54295 18.7481L5.20705 16.2519ZM29.793 16.2519L16.668 25.0019L18.3321 27.4981L31.4571 18.7481L29.793 16.2519ZM18.3321 25.0019L5.20705 16.2519L3.54295 18.7481L16.668 27.4981L18.3321 25.0019Z" fill="#7D7D7D"/>
<path d="M31.4571 24.5814C32.1463 24.1219 32.3326 23.1906 31.8731 22.5013C31.4135 21.812 30.4822 21.6257 29.793 22.0853L31.4571 24.5814ZM17.5 32.0833L16.6679 33.3314C17.1718 33.6673 17.8282 33.6673 18.3321 33.3314L17.5 32.0833ZM5.20705 22.0853C4.51776 21.6257 3.58645 21.812 3.12692 22.5013C2.6674 23.1906 2.85366 24.1219 3.54295 24.5814L5.20705 22.0853ZM29.793 22.0853L16.6679 30.8353L18.3321 33.3314L31.4571 24.5814L29.793 22.0853ZM18.3321 30.8353L5.20705 22.0853L3.54295 24.5814L16.6679 33.3314L18.3321 30.8353Z" fill="#7D7D7D"/>
</svg>
